<svg xmlns="http://www.w3.org/2000/svg" width="1080" height="460" viewBox="0 0 1080 460"><rect width="1080" height="460" fill="#f4f3ec"/><text x="44" y="52" fill="#233c2e" font-size="28" font-family="PingFang SC,sans-serif" font-weight="600">今日打卡 · 图标候选</text><g transform="translate(44 92)"><rect width="300" height="324" rx="24" fill="#fffef9" stroke="#dce3d8"/><defs><clipPath id="mask1"><rect x="70" y="28" width="160" height="160" rx="35"/></clipPath></defs><g clip-path="url(#mask1)"><svg x="70" y="28" width="160" height="160" viewBox="0 0 512 512"><rect width="512" height="512" fill="#245b43"/><rect x="104" y="104" width="304" height="304" rx="92" fill="#e5efce"/><g transform="translate(148 148) scale(9)" stroke="#245b43" stroke-width="1.8" stroke-linecap="round" stroke-linejoin="round" fill="none"><rect x="4" y="5" width="16" height="16" rx="4"/><path d="M8 3v4m8-4v4M4 10h16m-12 5 3 3 5-6"/></g></svg></g><g transform="translate(26 232)" fill="none" stroke="#2e654a" stroke-width="1.7" stroke-linecap="round" stroke-linejoin="round"><rect x="4" y="5" width="16" height="16" rx="4"/><path d="M8 3v4m8-4v4M4 10h16m-12 5 3 3 5-6"/></g><text x="70" y="252" fill="#233c2e" font-size="22" font-family="PingFang SC,sans-serif">A · 日历勾选</text><text x="70" y="286" fill="#607164" font-size="16" font-family="PingFang SC,sans-serif">清楚直观</text></g><g transform="translate(388 92)"><rect width="300" height="324" rx="24" fill="#fffef9" stroke="#dce3d8"/><defs><clipPath id="mask2"><rect x="70" y="28" width="160" height="160" rx="35"/></clipPath></defs><g clip-path="url(#mask2)"><svg x="70" y="28" width="160" height="160" viewBox="0 0 512 512"><rect width="512" height="512" fill="#245b43"/><rect x="104" y="104" width="304" height="304" rx="92" fill="#e5efce"/><g transform="translate(148 148) scale(9)" stroke="#245b43" stroke-width="1.8" stroke-linecap="round" stroke-linejoin="round" fill="none"><path d="M12 20v-9M12 14C5 14 4 10 4 6c6 0 8 3 8 8Zm0-3c0-6 3-8 8-8 0 5-3 8-8 8Z"/><path d="m14 18 2 2 5-5"/></g></svg></g><g transform="translate(26 232)" fill="none" stroke="#2e654a" stroke-width="1.7" stroke-linecap="round" stroke-linejoin="round"><path d="M12 20v-9M12 14C5 14 4 10 4 6c6 0 8 3 8 8Zm0-3c0-6 3-8 8-8 0 5-3 8-8 8Z"/><path d="m14 18 2 2 5-5"/></g><text x="70" y="252" fill="#233c2e" font-size="22" font-family="PingFang SC,sans-serif">B · 嫩芽勾选</text><text x="70" y="286" fill="#607164" font-size="16" font-family="PingFang SC,sans-serif">轻松成长 · 推荐</text></g><g transform="translate(732 92)"><rect width="300" height="324" rx="24" fill="#fffef9" stroke="#dce3d8"/><defs><clipPath id="mask3"><rect x="70" y="28" width="160" height="160" rx="35"/></clipPath></defs><g clip-path="url(#mask3)"><svg x="70" y="28" width="160" height="160" viewBox="0 0 512 512"><rect width="512" height="512" fill="#245b43"/><rect x="104" y="104" width="304" height="304" rx="92" fill="#e5efce"/><g transform="translate(148 148) scale(9)" stroke="#245b43" stroke-width="1.8" stroke-linecap="round" stroke-linejoin="round" fill="none"><circle cx="12" cy="12" r="8" opacity=".28"/><path d="M12 4a8 8 0 1 1-8 8m4 0 3 3 5-6"/></g></svg></g><g transform="translate(26 232)" fill="none" stroke="#2e654a" stroke-width="1.7" stroke-linecap="round" stroke-linejoin="round"><circle cx="12" cy="12" r="8" opacity=".28"/><path d="M12 4a8 8 0 1 1-8 8m4 0 3 3 5-6"/></g><text x="70" y="252" fill="#233c2e" font-size="22" font-family="PingFang SC,sans-serif">C · 进度圆环</text><text x="70" y="286" fill="#607164" font-size="16" font-family="PingFang SC,sans-serif">行动积累</text></g></svg>